<svg version="1" xmlns="http://www.w3.org/2000/svg" width="744" height="744" viewBox="0 0 558.000000 558.000000"><path d="M448 .7c-12.7 1.2-25.4 6.1-34 13.2-9.5 7.7-16.6 15.3-36 38.7-3 3.7-25.5 35.6-30.4 43.2l-4.7 7.3-3.2-2.7c-1.8-1.4-5-4.3-7.2-6.3-3.6-3.2-12.5-10.9-20.9-18.1-1.6-1.4-3.7-3.2-4.5-4-6.2-5.8-16.1-13.5-19.1-14.8-4.7-2-13.9-1.8-18.4.3-2 1-6.2 4-9.4 6.9-3.2 2.8-12.1 10.5-19.8 17.1-38.9 33.7-76.6 66.4-82.4 71.5-3.6 3.2-8 7-9.9 8.6-3.9 3.2-7.1 9.5-7.1 13.9 0 1.6.9 4.8 1.9 7.1l1.9 4.1-45.9.1c-45.2 0-46 0-50.1 2.2-5 2.5-8.4 5.8-10 9.7-1.4 3.5-1.9 339.8-.5 345.2 1.3 5.2 4.5 8.8 10.1 11.6l5 2.5H505.1l4.8-2.5c5.7-2.8 8.7-6.3 10-11.4 1.4-5.3 1.2-341.7-.2-345-1.8-4.2-5.9-8.2-10.7-10.4-4.3-1.9-6.4-2-50.2-1.9l-45.7.1 2-3.4c1.1-1.8 2-5.3 2.1-7.7.1-7.6-.6-8.4-23.2-28.4-3-2.7-7.5-6.5-9.9-8.5l-4.5-3.7 5-7.8c2.7-4.3 5.1-8.3 5.4-8.9 3.5-7.1 35.8-52 45-62.5 14.2-16.2 26.1-28.3 33.8-34.2 8.2-6.3 8.8-13.9 1.3-17.8-5-2.5-14.8-4-22.1-3.3zM290.8 110.2c5.9 5.1 11.2 9.7 11.8 10.3.6.5 5.2 4.5 10.1 8.8l9 7.9-7.4 13.1c-4.2 7.3-9.3 16.7-11.4 20.9-2.1 4.2-4.3 8-4.9 8.3-.6.4-3.1.4-5.5.1-8.2-1.3-18.4-10.1-28.1-24.2-3.2-4.6-6.1-8.4-6.6-8.4-.9 0-45.8 29.8-45.8 30.5 0 .2 3 3.9 6.6 8.2 7.6 9.1 31.3 38.1 32.8 40.3.6.8-.5.1-2.4-1.5-1.9-1.7-3.9-3.5-4.6-4-.6-.6-2.7-2.4-4.5-4-5.5-4.8-18.1-15.8-20.9-18.1-16.7-14.2-25.9-22.8-25.3-23.8.4-.6 1.4-1.7 2.4-2.3.9-.7 7.5-6.3 14.6-12.5S226.5 146 230 143s8.2-7.1 10.4-9.1c23.2-20.4 37.9-32.9 38.8-32.9.5 0 5.8 4.2 11.6 9.2zm72.6 63.1c2.7 2.3 2.7 2.4.7 3.8-1.1.8-4.8 3.9-8.2 6.9l-6.2 5.5 4.8-9.3c2.6-5 5.1-9.2 5.5-9.2.4 0 1.9 1.1 3.4 2.3zm-156.2 67.2c10.8 9.4 19.5 17.1 19.3 17.3-.1.2-14.6.4-32.1.5-29 .2-32.2.4-35.4 2.1-15.3 8.2-14.9 25.7.9 32.8 4.2 2 7 2 119.5 2 85.6 0 115.9-.3 118.1-1.2 16.5-6.4 17.4-25.9 1.6-33.7-3.2-1.6-7.1-1.8-34.9-1.9-17.2-.1-31.5-.4-31.8-.6-.4-.5 17-16 33.9-30.3l4.7-4h53.5c46.9 0 53.5.2 53.6 1.5v102.7l-.1 2.3H80V223.5h107.5l19.7 17zm270.9 128.7c.3 13.1 0 151-.3 151.4-.4.3-256.7.6-384.5.4H80V367h398l.1 2.2z"/></svg>